<?xml version="1.0" standalone="no"?>
<!DOCTYPE svg PUBLIC "-//W3C//DTD SVG 20010904//EN"
 "http://www.w3.org/TR/2001/REC-SVG-20010904/DTD/svg10.dtd">
<svg version="1.0" xmlns="http://www.w3.org/2000/svg"
 width="225.000000pt" height="225.000000pt" viewBox="0 0 225.000000 225.000000"
 preserveAspectRatio="xMidYMid meet">

<g transform="translate(0.000000,225.000000) scale(0.100000,-0.100000)"
fill="#000000" stroke="none">
<path d="M723 2241 c-190 -31 -355 -119 -484 -259 -98 -106 -155 -212 -196
-363 -26 -95 -23 -308 5 -412 62 -228 226 -426 436 -527 109 -52 180 -70 311
-77 134 -7 241 12 360 62 62 27 82 32 91 22 6 -6 117 -143 246 -302 281 -347
319 -378 458 -378 110 -1 199 52 244 146 33 67 42 132 26 196 -24 101 -65 146
-360 391 -151 125 -286 236 -299 247 l-23 19 31 62 c56 111 75 200 76 352 0
143 -11 203 -59 322 -38 93 -85 166 -161 246 -110 117 -248 200 -395 236 -79
19 -237 28 -307 17z m311 -66 c260 -72 479 -302 547 -575 18 -71 21 -103 16
-205 -6 -138 -23 -201 -88 -326 -34 -67 -63 -104 -144 -184 -110 -111 -194
-163 -335 -206 -96 -30 -279 -33 -380 -6 -362 97 -616 466 -570 831 21 172 91
315 218 448 121 127 242 198 397 234 76 17 257 12 339 -11z m788 -1474 c337
-295 351 -312 356 -426 5 -114 -38 -177 -154 -221 -40 -15 -51 -15 -101 -4
-31 8 -73 26 -95 40 -21 14 -153 163 -293 331 l-253 304 26 20 c46 33 160 146
184 181 13 19 25 34 28 34 3 0 138 -117 302 -259z"/>
<path d="M826 2023 c-3 -3 -6 -33 -6 -65 0 -38 -4 -60 -12 -62 -7 -2 -40 -8
-73 -15 -181 -34 -334 -191 -366 -378 l-11 -63 -64 0 c-50 0 -64 -3 -64 -15 0
-12 14 -15 63 -15 l64 0 12 -67 c36 -195 191 -348 389 -385 l62 -12 0 -63 c0
-49 3 -63 15 -63 12 0 15 14 15 64 l0 64 63 11 c200 35 362 201 392 404 l7 47
64 0 c50 0 64 3 64 15 0 12 -14 15 -63 15 l-63 0 -12 61 c-24 129 -104 250
-213 320 -56 36 -155 69 -205 69 l-34 0 0 64 c0 60 -8 84 -24 69z m-6 -228 c0
-42 3 -55 15 -55 11 0 15 12 15 51 l0 52 56 -6 c62 -6 162 -50 212 -92 67 -57
120 -159 136 -262 l6 -43 -55 0 c-42 0 -55 -3 -55 -15 0 -11 12 -15 49 -15 28
0 52 -4 55 -9 3 -5 1 -35 -5 -67 -31 -171 -149 -290 -323 -326 -30 -7 -58 -9
-62 -5 -4 4 -9 29 -12 57 -3 33 -9 50 -18 50 -10 0 -14 -15 -14 -56 l0 -57
-50 7 c-191 25 -345 182 -353 358 l-2 43 53 3 c37 2 52 7 52 18 0 10 -14 14
-55 14 -63 0 -65 5 -41 96 41 154 159 266 316 300 83 18 80 20 80 -41z"/>
<path d="M774 1651 c-32 -20 -62 -81 -49 -101 9 -15 35 7 35 30 0 25 47 60 79
60 35 -1 70 -29 79 -65 10 -36 26 -36 30 0 2 18 -6 35 -31 60 -41 41 -92 47
-143 16z"/>
<path d="M550 1500 c0 -59 24 -90 70 -90 25 0 30 -4 30 -25 0 -25 -1 -25 -91
-25 -68 0 -90 -3 -87 -12 3 -9 33 -14 91 -16 85 -3 87 -3 87 -27 0 -22 -4 -25
-35 -25 -45 0 -67 -32 -63 -91 4 -59 28 -65 28 -7 0 51 13 68 52 68 20 0 31
-8 43 -30 27 -51 84 -81 157 -82 40 -1 74 5 94 15 33 17 84 71 84 88 0 6 17 9
38 7 37 -3 37 -4 42 -52 8 -74 30 -72 30 3 0 67 -12 81 -69 81 -26 0 -31 4
-31 25 0 25 1 25 90 25 73 0 90 3 90 15 0 12 -17 15 -90 15 -89 0 -90 0 -90
25 0 21 5 25 28 25 15 0 38 7 50 16 18 12 22 25 22 70 0 41 -4 54 -15 54 -11
0 -15 -12 -15 -49 0 -35 -4 -51 -16 -55 -27 -11 -54 -6 -54 8 0 8 -12 24 -26
35 -24 19 -40 21 -150 21 -137 0 -170 -8 -184 -45 -6 -17 -17 -25 -33 -25 -34
0 -47 19 -47 67 0 32 -4 43 -15 43 -11 0 -15 -12 -15 -50z m270 -175 c0 -170
0 -171 -60 -140 -59 30 -70 57 -70 171 0 118 3 123 83 124 l47 0 0 -155z m161
134 c16 -25 11 -178 -8 -216 -18 -39 -65 -73 -100 -73 -23 0 -23 1 -23 148 0
82 3 152 8 156 12 13 113 0 123 -15z"/>
</g>
</svg>
