<?xml version="1.0" standalone="no"?>
<!DOCTYPE svg PUBLIC "-//W3C//DTD SVG 20010904//EN"
 "http://www.w3.org/TR/2001/REC-SVG-20010904/DTD/svg10.dtd">
<svg version="1.0" xmlns="http://www.w3.org/2000/svg"
 width="148.000000pt" height="148.000000pt" viewBox="0 0 148.000000 148.000000"
 preserveAspectRatio="xMidYMid meet">

<g transform="translate(0.000000,148.000000) scale(0.100000,-0.100000)"
fill="#000000" stroke="none">
<path d="M213 1073 c37 -2 96 -2 130 0 34 2 4 3 -68 3 -72 0 -99 -1 -62 -3z"/>
<path d="M541 1074 c-2 -26 30 -83 65 -113 46 -41 73 -51 134 -51 61 0 88 10
134 51 37 32 70 93 62 113 -2 6 -5 3 -5 -6 -1 -20 -21 -25 -21 -5 -1 6 -10 -5
-21 -26 -63 -120 -235 -120 -298 0 -11 21 -20 32 -21 26 0 -19 -18 -16 -23 5
-3 9 -5 12 -6 6z"/>
<path d="M1143 1073 c37 -2 96 -2 130 0 34 2 4 3 -68 3 -71 0 -99 -1 -62 -3z"/>
<path d="M106 1045 c-14 -13 -26 -30 -27 -37 -2 -57 -6 -353 -7 -535 -2 -216
-3 -223 -22 -223 -18 0 -20 -7 -20 -70 0 -81 13 -116 51 -136 41 -21 1277 -21
1318 0 38 20 51 55 51 136 0 63 -2 70 -20 70 -19 0 -20 7 -22 223 -2 365 -6
516 -12 541 -3 13 -18 31 -32 41 -15 9 -23 12 -20 6 5 -7 -3 -11 -21 -12 -26
0 -26 -1 -7 -9 53 -21 54 -25 54 -422 l0 -368 -630 0 -630 0 0 368 c0 397 1
401 54 422 19 8 19 9 -7 9 -16 1 -26 5 -22 11 10 17 -1 11 -29 -15z m1304
-885 c0 -37 -5 -55 -20 -70 -20 -20 -33 -20 -650 -20 -617 0 -630 0 -650 20
-15 15 -20 33 -20 70 l0 50 670 0 670 0 0 -50z"/>
<path d="M120 140 c0 -13 7 -20 20 -20 13 0 20 7 20 20 0 13 -7 20 -20 20 -13
0 -20 -7 -20 -20z"/>
<path d="M210 140 c0 -13 7 -20 20 -20 13 0 20 7 20 20 0 13 -7 20 -20 20 -13
0 -20 -7 -20 -20z"/>
<path d="M300 140 c0 -13 7 -20 20 -20 13 0 20 7 20 20 0 13 -7 20 -20 20 -13
0 -20 -7 -20 -20z"/>
<path d="M641 1063 c-2 -24 59 -63 99 -63 40 0 101 39 99 63 0 8 -2 8 -6 0 -2
-7 -11 -13 -19 -13 -9 0 -12 5 -8 13 4 6 -2 4 -13 -5 -11 -10 -35 -18 -53 -18
-18 0 -42 8 -53 18 -11 9 -17 11 -13 5 4 -8 1 -13 -8 -13 -8 0 -17 6 -19 13
-4 8 -6 8 -6 0z"/>
<path d="M418 1053 c-27 -7 -22 -33 6 -33 13 0 29 -7 36 -15 11 -13 -4 -15
-123 -15 -74 0 -142 -3 -151 -6 -14 -5 -16 -44 -16 -335 0 -314 1 -329 19
-339 27 -14 1075 -14 1102 0 18 10 19 25 19 339 0 291 -2 330 -16 335 -9 3
-77 6 -151 6 -119 0 -134 2 -123 15 7 8 23 15 36 15 28 0 32 25 5 33 -10 2
-32 -1 -49 -8 -36 -16 -51 -61 -30 -94 11 -19 9 -25 -24 -58 -34 -34 -39 -36
-64 -24 -36 16 -82 -2 -90 -35 -6 -22 -11 -24 -64 -24 -53 0 -58 2 -64 24 -8
33 -54 51 -90 35 -25 -12 -30 -10 -63 24 -34 33 -36 38 -24 61 27 49 -25 112
-81 99z m27 -116 c-3 -7 21 -38 53 -70 l59 -58 32 18 c31 17 32 17 46 -1 8
-11 15 -28 15 -38 0 -16 10 -18 90 -18 80 0 90 2 90 18 0 10 7 27 15 38 14 18
15 18 46 1 l32 -18 59 58 c32 32 56 63 53 70 -3 10 24 13 120 13 l125 0 -2
-302 -3 -303 -535 0 -535 0 -3 303 -2 302 125 0 c96 0 123 -3 120 -13z"/>
<path d="M440 753 c-34 -7 -88 -49 -111 -87 -27 -44 -25 -129 4 -181 44 -78
152 -108 237 -65 70 36 111 123 91 196 -10 37 -10 40 16 61 23 19 25 24 13 38
-12 14 -15 14 -37 -7 -15 -14 -27 -19 -31 -12 -29 42 -118 70 -182 57z m103
-46 c64 -27 63 -38 -11 -95 l-67 -51 -28 26 c-24 24 -29 25 -42 12 -13 -13
-11 -19 24 -53 45 -44 32 -48 140 37 l60 48 7 -27 c10 -40 -12 -99 -51 -133
-30 -26 -44 -31 -88 -31 -44 0 -59 5 -89 31 -127 104 -7 299 145 236z"/>
<path d="M945 752 c-95 -33 -152 -134 -124 -219 27 -86 90 -133 176 -133 101
1 173 75 173 180 0 63 -20 104 -72 143 -35 27 -116 42 -153 29z m111 -48 c94
-45 108 -167 26 -233 -30 -26 -45 -31 -89 -31 -44 0 -58 5 -87 30 -127 112 -2
306 150 234z"/>
<path d="M1018 633 l-27 -27 -19 22 c-11 12 -24 22 -30 22 -23 0 -23 -22 -1
-46 l22 -24 -21 -23 c-42 -44 -17 -75 27 -33 l27 26 24 -25 c27 -29 38 -31 47
-9 3 8 -4 25 -17 40 l-23 24 23 25 c21 22 22 27 9 40 -13 13 -18 12 -41 -12z"/>
</g>
</svg>
